<svg xmlns="http://www.w3.org/2000/svg" version="1.1" xmlns:xlink="http://www.w3.org/1999/xlink" xmlns:svgjs="http://svgjs.dev/svgjs" width="1000" height="1125" viewBox="0 0 1000 1125"><g transform="matrix(1,0,0,1,1.7053025658242404e-13,0)"><svg viewBox="0 0 320 360" data-background-color="#ffffff" preserveAspectRatio="xMidYMid meet" height="1125" width="1000" xmlns="http://www.w3.org/2000/svg" xmlns:xlink="http://www.w3.org/1999/xlink"><g id="tight-bounds" transform="matrix(1,0,0,1,0,0)"><svg viewBox="0 0 320 360" height="360" width="320"><g><svg></svg></g><g><svg viewBox="0 0 320 360" height="360" width="320"><g><path xmlns="http://www.w3.org/2000/svg" d="M20.961 227.22l3.726 4.658-1.863-6.056c-0.466-2.795-3.726 0.466-1.863 1.398M25.153 224.425c1.397 2.329 2.795 4.658 2.795 6.987 0 3.261 2.795 4.658 5.123 5.589-3.261-3.726-5.124-13.974-7.918-12.576M204.017 26.929c7.918 0 15.371-0.932 23.756 0.931 20.495 5.124 37.729 15.371 49.374 29.811l32.606 52.169c1.397 13.042 4.192 27.482 3.726 43.319 3.261 0 2.795-4.658 6.521-5.59-3.726 9.316-5.59 20.961-6.521 34.469-2.329-7.453 0-18.632 0.466-24.687-3.261 5.124-5.124 1.397-5.124-0.932 0.466-3.726-1.397-3.261-2.795-4.658-5.124-4.658-8.384-9.782-12.11-17.7 2.329-6.055 2.795-14.905-4.658-19.563-2.329-1.397-5.124-3.726-6.521-7.453-1.863-5.124-5.124-11.179-4.193-19.097 0.466-2.329-6.987 5.124-11.179 1.863-18.166-12.576-36.332-27.016-58.224-39.127-11.645 0-20.029-4.192-24.221-9.316-3.726-4.658-0.932-10.713 4.658-11.179 3.261 0 6.987-0.932 9.782 0.932 0.466-1.863 2.329-4.192 4.657-4.192M157.904 16.215l0.932 0.466c4.658 0.932 6.987 7.453 12.11 5.124 0 3.261 0.466 6.521-0.466 8.85-1.397 3.726-5.59 3.726-8.85 3.726-31.208-1.863-49.374 11.179-68.471 22.358-5.124 3.261-10.713 5.59-14.906 9.782-20.029 18.632-41.921 35.866-47.045 70.335l-4.192 38.195c-0.466 4.192-5.124 8.384-4.192 13.508l3.26 22.824c-3.261-3.261-5.124 0.932-4.192 2.795 0.466 1.397 2.329 6.055 5.124 1.863 3.726 6.987 7.453 20.495 12.576 26.55 15.837 18.632 36.332 35.4 53.101 52.169 4.192-0.932 7.453-0.932 8.384-3.727 1.397 2.795-1.397 5.59-3.726 6.056 7.453 4.658 15.837 8.85 27.016 9.781 14.44 0.932 27.948 3.261 40.524 6.522 6.521-1.863 13.042-2.795 20.029-3.261 2.329 0 3.726-3.726 6.521-4.658l0.466-4.658c2.795 4.192 2.329-1.397 0.466-4.192 3.261 2.795 4.192 5.124 5.589 6.987 0-1.397 3.726-6.521 3.727-0.466l0.931-6.055c1.397-0.932 1.863 5.124 3.261 0.931 1.397-4.192 4.192-0.932 6.987-2.329-0.932 1.863-0.466 5.59 2.794 3.261l3.727-3.261c2.329 5.59 6.055 3.261 7.918 2.329 20.495-13.042 40.99-28.413 60.553-43.784l-0.466 6.055 2.329-7.453c2.329 2.329 4.192 0.466 5.124-0.931 2.795-4.658 6.521-9.316 12.577-13.508-7.453 20.029-16.303 35.866-27.482 48.908l-4.658 5.59c0 3.261-0.932 7.453-4.658 7.918-1.863 0.466-5.59-0.932-8.384 1.863-1.397 1.863 3.261 5.59-0.466 2.795-3.261-2.329-6.521 0-10.248 0.932-2.795 0.932 1.863 3.726 2.795 5.589 0.932 1.863 1.863 3.726 1.398 6.056l-5.124-5.59c-6.055 3.261-9.782 9.316-14.906 13.974-2.329 1.863-1.397 5.124-1.397 7.918-3.261 0-6.987-0.932-8.85 0.932-1.397 1.863-0.932 4.658-0.932 7.453-4.658-0.466-5.124-7.453-9.315-6.056-4.192 0.932-8.85 1.397-12.577 3.727 2.795 5.59-4.658 2.329-3.726 3.26-6.987-4.192-13.042-7.453-20.495-4.658-15.837-5.124-35.4-2.795-49.84-0.931 0-2.329 0.466-4.658-0.466-5.124-0.932 2.329-3.726 1.397-3.26 1.397-8.85-6.055-17.7-9.782-27.016-14.905-8.384 0.932-16.303-3.261-18.632-5.59-6.521-6.055-13.974-2.795-20.029-4.192-13.042-3.261-17.7-16.769-19.098-26.084-0.932-4.658-4.658-6.521-6.055-6.056-6.055-19.563-15.371-37.263-22.824-55.429-1.863-4.658-1.397-9.316-1.397-14.44 2.329 0.932 4.658 0.466 4.192-2.794-2.329-15.371-7.918-27.016-13.974-38.195 3.261-15.837 3.726-34.469 11.179-48.443 6.521-12.576 18.632-19.098 27.016-29.811 2.795-3.726 2.795-8.85 5.59-12.11 9.316-9.316 18.632-19.098 28.879-27.482 4.658-3.726 10.247 0 17.234-1.397 2.329-8.384 11.645-15.837 20.495-13.508 3.726 0.932 11.179-8.85 13.508-9.782 3.726-1.397 1.863 3.726 1.863 6.987 8.85-6.987 20.961-10.713 32.14-14.906" fill="#b19dd0" fill-rule="nonzero" stroke="none" stroke-width="1" stroke-linecap="butt" stroke-linejoin="miter" stroke-miterlimit="10" stroke-dasharray="" stroke-dashoffset="0" font-family="none" font-weight="none" font-size="none" text-anchor="none" style="mix-blend-mode: normal" data-fill-palette-color="tertiary"></path></g><g transform="matrix(1,0,0,1,64,139.4173228346457)"><svg viewBox="0 0 192 81.16535433070865" height="81.16535433070865" width="192"><g><svg viewBox="0 0 192 81.16535433070865" height="81.16535433070865" width="192"><g><svg viewBox="0 0 192 81.16535433070865" height="81.16535433070865" width="192"><g><svg viewBox="0 0 192 81.16535433070865" height="81.16535433070865" width="192"><g id="textblocktransform"><svg viewBox="0 0 192 81.16535433070865" height="81.16535433070865" width="192" id="textblock"><g><svg viewBox="0 0 192 81.16535433070865" height="81.16535433070865" width="192"><g transform="matrix(1,0,0,1,0,0)"><svg width="192" viewBox="3.5 -34.29999923706055 101.58999633789062 42.94999694824219" height="81.16535433070865" data-palette-color="#b19dd0"><path d="M3.5 0L3.5-34.3 7.9-34.3 7.9-16.15 21.5-34.3 26.4-34.3 16.1-20.45 26.75 0 21.75 0 13.4-16.75 7.9-10.65 7.9 0 3.5 0ZM39.4 0.6Q34.4 0.6 31.92-2.68 29.45-5.95 29.45-13.15L29.45-13.15Q29.45-20.2 31.9-23.55 34.35-26.9 39.35-26.9L39.35-26.9Q43.75-26.9 45.87-23.98 48-21.05 48-14.55L48-14.55 48-11.95 33.75-11.95Q33.8-7.35 35.17-5.2 36.55-3.05 39.5-3.05L39.5-3.05Q41.5-3.05 42.72-4.65 43.95-6.25 43.95-8.95L43.95-8.95 48-8.95Q48-4.55 45.62-1.98 43.25 0.6 39.4 0.6L39.4 0.6ZM33.8-15.6L43.7-15.6Q43.7-19.35 42.6-21.3 41.5-23.25 39.35-23.25L39.35-23.25Q36.7-23.25 35.37-21.38 34.05-19.5 33.8-15.6L33.8-15.6ZM53.15 0L53.15-26.3 56.25-26.3 56.8-23.25 57.1-23.25Q59.05-26.9 63.1-26.9L63.1-26.9Q67.34-26.9 68.7-23.1L68.7-23.1Q69.7-24.95 71.42-25.93 73.15-26.9 75.09-26.9L75.09-26.9Q81.3-26.9 81.3-18.95L81.3-18.95 81.3 0 77.2 0 77.2-18.65Q77.2-21.2 76.3-22.23 75.4-23.25 73.8-23.25L73.8-23.25Q71.9-23.25 70.59-21.3 69.3-19.35 69.3-16.05L69.3-16.05 69.3 0 65.2 0 65.2-18.65Q65.2-21.2 64.3-22.23 63.4-23.25 61.8-23.25L61.8-23.25Q59.9-23.25 58.57-21.3 57.25-19.35 57.25-16.05L57.25-16.05 57.25 0 53.15 0ZM87.29 8.65L87.29-26.3 90.39-26.3 90.94-23.25 91.19-23.25Q92.14-25.05 93.64-25.98 95.14-26.9 96.94-26.9L96.94-26.9Q100.84-26.9 102.97-23.5 105.09-20.1 105.09-13.1L105.09-13.1Q105.09-6.3 102.92-2.85 100.74 0.6 97.24 0.6L97.24 0.6Q95.34 0.6 93.82-0.18 92.29-0.95 91.64-2.3L91.64-2.3 91.39-2.3 91.39 8.65 87.29 8.65ZM96.09-3.05Q98.49-3.05 99.64-5.2 100.79-7.35 100.79-12.2L100.79-12.2 100.79-14.1Q100.79-18.95 99.64-21.1 98.49-23.25 96.09-23.25L96.09-23.25Q91.39-23.25 91.39-14.1L91.39-14.1 91.39-12.2Q91.39-3.05 96.09-3.05L96.09-3.05Z" opacity="1" transform="matrix(1,0,0,1,0,0)" fill="#b19dd0" class="wordmark-text-0" data-fill-palette-color="primary" id="text-0"></path></svg></g></svg></g></svg></g></svg></g><g></g></svg></g></svg></g></svg></g></svg></g><defs></defs></svg><rect width="320" height="360" fill="none" stroke="none" visibility="hidden"></rect></g></svg></g></svg>