<svg xmlns="http://www.w3.org/2000/svg" version="1.1" xmlns:xlink="http://www.w3.org/1999/xlink" xmlns:svgjs="http://svgjs.dev/svgjs" width="1000" height="623" viewBox="0 0 1000 623"><g transform="matrix(1,0,0,1,-0.6060606060606233,0.2522267206477409)"><svg viewBox="0 0 396 247" data-background-color="#1ebbd7" preserveAspectRatio="xMidYMid meet" height="623" width="1000" xmlns="http://www.w3.org/2000/svg" xmlns:xlink="http://www.w3.org/1999/xlink"><g id="tight-bounds" transform="matrix(1,0,0,1,0.2400000000000091,-0.09999999999999432)"><svg viewBox="0 0 395.52 247.2" height="247.2" width="395.52"><g><svg></svg></g><g><svg viewBox="0 0 395.52 247.2" height="247.2" width="395.52"><g transform="matrix(1,0,0,1,75.54432,59.93369971014493)"><svg viewBox="0 0 244.43135999999998 127.33260057971013" height="127.33260057971013" width="244.43135999999998"><g><svg viewBox="0 0 244.43135999999998 127.33260057971013" height="127.33260057971013" width="244.43135999999998"><g><svg viewBox="0 0 244.43135999999998 127.33260057971013" height="127.33260057971013" width="244.43135999999998"><g><svg viewBox="0 0 244.43135999999998 127.33260057971013" height="127.33260057971013" width="244.43135999999998"><g id="textblocktransform"><svg viewBox="0 0 244.43135999999998 127.33260057971013" height="127.33260057971013" width="244.43135999999998" id="textblock"><g><svg viewBox="0 0 244.43135999999998 127.33260057971013" height="127.33260057971013" width="244.43135999999998"><g transform="matrix(1,0,0,1,0,0)"><svg width="244.43135999999998" viewBox="3.35 -31.95 62.1 32.35" height="127.33260057971013" data-palette-color="#ffffff"><path d="M32.6-31.95L35.85 0 33.45 0 32.6-9.75 30.65-27.45 30.35-27.45 20.6-3.85 18.25-3.85 8.85-27.45 8.55-27.45 6.6-9.9 5.65 0 3.35 0 6.8-31.95 9.75-31.95 11.55-27.05 19.4-7.3 19.65-7.3 27.95-27.45 29.65-31.95 32.6-31.95ZM46.9-31.95L46.8-9.85 46.9 0 44.3 0 44.4-9.7 44.3-31.95 46.9-31.95ZM64.6-31.95L50.75-17Q57.6-8.4 65.45-0.55L65.45-0.55 65.45-0.2Q64.7 0.1 63.1 0.4L63.1 0.4 62.75 0.25Q54.45-8.45 47.9-16.85L47.9-16.85 47.9-17.05 59.4-29.4 61.5-31.95 64.6-31.95Z" opacity="1" transform="matrix(1,0,0,1,0,0)" fill="#ffffff" class="wordmark-text-0" data-fill-palette-color="primary" id="text-0"></path></svg></g></svg></g></svg></g></svg></g></svg></g></svg></g></svg></g><g><path d="M245.816 0c68.262 0 123.6 55.338 123.6 123.6 0 68.262-55.338 123.6-123.6 123.6-38.362 0-72.643-17.477-95.314-44.904l7.577 0c21.577 24.04 52.891 39.162 87.737 39.163 65.091 0 117.859-52.767 117.858-117.859 0-65.091-52.767-117.859-117.858-117.859-34.846 0-66.16 15.122-87.737 39.163l-7.577 0c22.671-27.426 56.951-44.904 95.314-44.904z" fill="#ffffff" stroke="transparent" data-fill-palette-color="tertiary"></path></g></svg></g><defs></defs></svg><rect width="395.52" height="247.2" fill="none" stroke="none" visibility="hidden"></rect></g></svg></g></svg>